<svg xmlns="http://www.w3.org/2000/svg" viewBox="0 0 388 388"><defs><style>.cls-1{fill:#f7a503;}.cls-2{fill:#840d11;}.cls-3{fill:#f5a508;}.cls-4{fill:#ffa300;}.cls-5{fill:#840f17;}.cls-6{fill:#850f0f;}.cls-7{fill:#87111f;}.cls-8{fill:#800b14;}</style></defs><g id="Capa_2" data-name="Capa 2"><g id="Capa_1-2" data-name="Capa 1"><circle class="cls-1" cx="194" cy="194" r="194"/><circle class="cls-2" cx="194.97" cy="193.03" r="153.26"/><circle class="cls-1" cx="127.07" cy="127.07" r="27.16"/><circle class="cls-1" cx="127.07" cy="264.81" r="27.16"/><circle class="cls-3" cx="264.81" cy="127.07" r="27.16"/><circle class="cls-4" cx="264.81" cy="264.81" r="27.16"/><circle class="cls-5" cx="127.07" cy="127.07" r="13.58"/><circle class="cls-6" cx="127.07" cy="264.81" r="13.58"/><circle class="cls-7" cx="264.81" cy="127.07" r="13.58"/><circle class="cls-8" cx="264.81" cy="264.81" r="13.58"/><path class="cls-2" d="M168,202.73H115.43V189.15h51.64a10.33,10.33,0,0,0,7.7-3.44l11.32-12.59a10.39,10.39,0,0,0,2.64-6.92V113.91h13.58v52a10.33,10.33,0,0,0,3,7.32l11.88,11.88a10.35,10.35,0,0,0,7.32,3h52v13.58H224.19a10.31,10.31,0,0,0-6.87,2.62l-11,9.81a10.36,10.36,0,0,0-3.47,7.74v51.61H189.22V222.09a10.34,10.34,0,0,0-3.76-8l-10.9-9A10.38,10.38,0,0,0,168,202.73Z"/><path class="cls-2" d="M116.4,202.73c-4.82,0-8.73-3-8.73-6.79s3.91-6.79,8.73-6.79"/><path class="cls-2" d="M202.8,272.5c0,4.82-3,8.73-6.79,8.73s-6.79-3.91-6.79-8.73"/><path class="cls-2" d="M275.55,188.11c4.82,0,8.73,3,8.73,6.79s-3.91,6.79-8.73,6.79"/><path class="cls-2" d="M188.73,114.88c0-4.83,3-8.73,6.79-8.73s6.79,3.9,6.79,8.73"/><path class="cls-1" d="M155.75,205.91H79.33V186.15h75.12a15.07,15.07,0,0,0,11.21-5l16.45-18.32A15.08,15.08,0,0,0,186,152.77V76.69h19.76V152.3A15.05,15.05,0,0,0,210.13,163l17.28,17.28a15.06,15.06,0,0,0,10.65,4.41h75.6v19.75H237.55a15.08,15.08,0,0,0-10,3.81l-16.06,14.28a15,15,0,0,0-5.06,11.25v75.08H186.67V234.06a15.07,15.07,0,0,0-5.47-11.61l-15.86-13.1A15.11,15.11,0,0,0,155.75,205.91Z"/><path class="cls-1" d="M80.74,205.91c-7,0-12.7-4.43-12.7-9.88s5.68-9.88,12.7-9.88"/><path class="cls-1" d="M206.42,307.4c0,7-4.42,12.7-9.88,12.7s-9.87-5.69-9.87-12.7"/><path class="cls-1" d="M312.25,184.64c7,0,12.7,4.42,12.7,9.88s-5.69,9.87-12.7,9.87"/><path class="cls-1" d="M186,78.11c0-7,4.42-12.7,9.88-12.7s9.88,5.68,9.88,12.7"/><path class="cls-2" d="M168.35,202H115.81V188.37h51.64a10.37,10.37,0,0,0,7.71-3.44l11.31-12.59a10.4,10.4,0,0,0,2.65-6.92V113.13H202.7v52a10.36,10.36,0,0,0,3,7.32l11.88,11.88a10.35,10.35,0,0,0,7.32,3h52v13.58H224.58a10.32,10.32,0,0,0-6.88,2.62l-11,9.81a10.36,10.36,0,0,0-3.47,7.74v51.61H189.6V221.31a10.34,10.34,0,0,0-3.76-8l-10.9-9A10.36,10.36,0,0,0,168.35,202Z"/><path class="cls-2" d="M116.78,202c-4.82,0-8.73-3-8.73-6.79s3.91-6.79,8.73-6.79"/><path class="cls-2" d="M203.18,271.72c0,4.82-3,8.73-6.79,8.73s-6.79-3.91-6.79-8.73"/><path class="cls-2" d="M275.93,187.33c4.82,0,8.73,3,8.73,6.79s-3.91,6.79-8.73,6.79"/><path class="cls-2" d="M189.12,114.1c0-4.83,3-8.73,6.79-8.73s6.79,3.9,6.79,8.73"/></g></g></svg>