<svg xmlns="http://www.w3.org/2000/svg" width="47.339" height="46.181" viewBox="0 0 47.339 46.181">
  <g id="cat" transform="translate(0 -5.365)">
    <path id="Trazado_12" data-name="Trazado 12" d="M44.164,17.154A23.567,23.567,0,0,0,35.55,8.539,23.151,23.151,0,0,0,23.67,5.365,23.154,23.154,0,0,0,11.789,8.539a23.564,23.564,0,0,0-8.614,8.614A23.153,23.153,0,0,0,0,29.034,23,23,0,0,0,4.515,42.949,23.182,23.182,0,0,0,16.18,51.5a1.379,1.379,0,0,0,1.233-.215,1.205,1.205,0,0,0,.4-.924q0-.092-.016-1.664t-.016-2.742l-.709.123a9.043,9.043,0,0,1-1.711.108,13.032,13.032,0,0,1-2.142-.216,4.786,4.786,0,0,1-2.065-.924A3.91,3.91,0,0,1,9.8,43.15l-.308-.709a7.7,7.7,0,0,0-.971-1.572A3.719,3.719,0,0,0,7.181,39.7l-.216-.154a2.263,2.263,0,0,1-.4-.37,1.691,1.691,0,0,1-.277-.431q-.093-.216.154-.355a2,2,0,0,1,.894-.138l.616.092a4.5,4.5,0,0,1,1.526.74,4.974,4.974,0,0,1,1.495,1.6,5.433,5.433,0,0,0,1.711,1.927,3.628,3.628,0,0,0,2.018.662,8.765,8.765,0,0,0,1.757-.154,6.13,6.13,0,0,0,1.387-.463,4.994,4.994,0,0,1,1.51-3.175,21.1,21.1,0,0,1-3.159-.555,12.578,12.578,0,0,1-2.9-1.2,8.3,8.3,0,0,1-2.481-2.065A9.923,9.923,0,0,1,9.2,32.423,15.389,15.389,0,0,1,8.567,27.8,8.989,8.989,0,0,1,11,21.451a8.285,8.285,0,0,1,.216-6.287,4.319,4.319,0,0,1,2.651.416,18.531,18.531,0,0,1,2.573,1.187q.817.492,1.31.832a22.258,22.258,0,0,1,11.835,0l1.171-.739A16.586,16.586,0,0,1,33.593,15.5a4.039,4.039,0,0,1,2.5-.339,8.205,8.205,0,0,1,.246,6.287A8.991,8.991,0,0,1,38.772,27.8a15.561,15.561,0,0,1-.632,4.638,9.538,9.538,0,0,1-1.633,3.236,8.616,8.616,0,0,1-2.5,2.049,12.6,12.6,0,0,1-2.9,1.2,21.081,21.081,0,0,1-3.159.555,5.489,5.489,0,0,1,1.6,4.376v6.5a1.228,1.228,0,0,0,.386.924,1.339,1.339,0,0,0,1.217.215,23.179,23.179,0,0,0,11.666-8.552,23.008,23.008,0,0,0,4.515-13.915A23.172,23.172,0,0,0,44.164,17.154Z" fill="#6664ff"/>
  </g>
</svg>
